<svg width="22" height="22" viewBox="0 0 22 22" fill="none" xmlns="http://www.w3.org/2000/svg">
<path d="M20.169 9H1.31763M20.169 11.5V7.8C20.169 6.11984 20.169 5.27976 19.8265 4.63803C19.5253 4.07354 19.0447 3.6146 18.4535 3.32698C17.7814 3 16.9016 3 15.142 3H6.34465C4.58503 3 3.70522 3 3.03313 3.32698C2.44194 3.6146 1.9613 4.07354 1.66007 4.63803C1.31763 5.27976 1.31763 6.11984 1.31763 7.8V16.2C1.31763 17.8802 1.31763 18.7202 1.66007 19.362C1.9613 19.9265 2.44194 20.3854 3.03313 20.673C3.70522 21 4.58503 21 6.34465 21H10.7433M14.9325 1V5M6.55411 1V5M13.3615 18L15.4561 20L20.169 15.5" stroke="black" stroke-width="2" stroke-linecap="round" stroke-linejoin="round"/>
</svg>
