<svg width="179" height="17" viewBox="0 0 179 17" fill="none" xmlns="http://www.w3.org/2000/svg">
<g id="Heading">
<path d="M0 16.488H13.392V13.896H3.36V0.263999H0V16.488Z" fill="white"/>
<path d="M27.2835 16.488C29.8035 16.488 31.7955 15.888 33.2595 14.664C34.7235 13.464 35.4675 11.64 35.4915 9.216V0H32.1315V9.336C32.1315 10.848 31.6995 11.976 30.8595 12.72C30.0195 13.488 28.8435 13.872 27.3315 13.872C25.8195 13.872 24.6435 13.464 23.7795 12.672C22.9395 11.904 22.5075 10.752 22.5075 9.24V0H19.1475V9.336C19.1715 11.712 19.8915 13.488 21.3555 14.688C22.7955 15.888 24.7635 16.488 27.2835 16.488Z" fill="white"/>
<path d="M41.2481 16.488H45.2081L50.1521 10.464L55.0481 16.488H59.1281L52.3121 8.184L58.8401 0.263999H54.8801L50.2241 5.952L45.5921 0.263999H41.5121L48.0881 8.232L41.2481 16.488Z" fill="white"/>
<path d="M64.8956 13.944V16.488H79.2956V13.944H64.8956ZM64.8956 7.032V9.576H79.2956V7.032H64.8956ZM64.8956 0.263999V2.808H79.2956V0.263999H64.8956Z" fill="white"/>
<path d="M85.0509 16.488H92.1789C94.1949 16.464 95.9469 16.104 97.4829 15.408C98.9949 14.688 100.171 13.728 101.035 12.504C101.875 11.28 102.307 9.912 102.331 8.376V8.328C102.307 6.792 101.875 5.4 101.035 4.2C100.171 3 98.9949 2.04 97.4829 1.32C95.9469 0.624001 94.1949 0.263999 92.1789 0.263999H85.0509V16.488ZM88.4109 13.896V2.856H92.1789C94.1949 2.88 95.8029 3.408 97.0029 4.416C98.1789 5.424 98.7789 6.744 98.8029 8.376V8.424C98.7789 10.032 98.1789 11.352 97.0029 12.336C95.8029 13.344 94.1949 13.872 92.1789 13.896H88.4109Z" fill="white"/>
<path d="M116.345 8.304H108.089V16.488H111.449V10.824H115.649L120.353 16.488H124.289L119.153 10.344C120.497 10.032 121.601 9.456 122.417 8.64C123.257 7.824 123.665 6.888 123.689 5.544V5.256C123.689 4.56 123.569 4.008 123.281 3.432C123.017 2.832 122.633 2.328 122.105 1.872C121.505 1.368 120.737 0.960001 119.801 0.672C118.865 0.408 117.809 0.263999 116.609 0.263999H108.089V2.856H116.321C117.569 2.856 118.553 3.072 119.249 3.552C119.921 4.008 120.281 4.56 120.281 5.424V5.712C120.281 6.552 119.921 7.08 119.225 7.56C118.529 8.04 117.569 8.304 116.345 8.304Z" fill="white"/>
<path d="M130.049 16.488H133.409V0.263999H130.049V16.488Z" fill="white"/>
<path d="M147.109 16.488H150.061L158.005 0.144H154.357L148.621 12.384L142.861 0.144H139.165L147.109 16.488Z" fill="white"/>
<path d="M163.774 13.944V16.488H178.174V13.944H163.774ZM163.774 7.032V9.576H178.174V7.032H163.774ZM163.774 0.263999V2.808H178.174V0.263999H163.774Z" fill="white"/>
</g>
</svg>
