<svg width="24" height="23" viewBox="0 0 24 23" fill="none" xmlns="http://www.w3.org/2000/svg">
<path d="M14.8851 8.4824H14.8956M8.60134 8.4824H8.61182M22.2162 11.5C22.2162 17.0554 17.5273 21.5589 11.7432 21.5589C5.95917 21.5589 1.27026 17.0554 1.27026 11.5C1.27026 5.94471 5.95917 1.44122 11.7432 1.44122C17.5273 1.44122 22.2162 5.94471 22.2162 11.5ZM15.4088 8.4824C15.4088 8.76017 15.1743 8.98534 14.8851 8.98534C14.5959 8.98534 14.3615 8.76017 14.3615 8.4824C14.3615 8.20463 14.5959 7.97946 14.8851 7.97946C15.1743 7.97946 15.4088 8.20463 15.4088 8.4824ZM9.12499 8.4824C9.12499 8.76017 8.89055 8.98534 8.60134 8.98534C8.31214 8.98534 8.0777 8.76017 8.0777 8.4824C8.0777 8.20463 8.31214 7.97946 8.60134 7.97946C8.89055 7.97946 9.12499 8.20463 9.12499 8.4824ZM11.7432 17.0324C14.362 17.0324 16.4561 15.1886 16.4561 13.5118H7.0304C7.0304 15.1886 9.12447 17.0324 11.7432 17.0324Z" stroke="black" stroke-width="2" stroke-linecap="round" stroke-linejoin="round"/>
</svg>
