<svg width="24" height="28" viewBox="0 0 24 28" fill="none" xmlns="http://www.w3.org/2000/svg">
<g id="bxs:phone-call">
<path id="Vector" d="M20.0002 12.7377H22.0002C22.0002 6.9116 18.1272 2.51758 12.9902 2.51758V4.78898C17.0522 4.78898 20.0002 8.13134 20.0002 12.7377Z" fill="white"/>
<path id="Vector_2" d="M12.9998 9.33182C15.1028 9.33182 15.9998 10.3505 15.9998 12.7389H17.9998C17.9998 9.07628 16.2248 7.06042 12.9998 7.06042V9.33182ZM16.4218 15.5134C16.2296 15.3151 15.9771 15.2093 15.7176 15.2184C15.4581 15.2275 15.2118 15.3508 15.0308 15.5623L12.6378 18.3572C12.0618 18.2323 10.9038 17.8223 9.71179 16.472C8.51979 15.1171 8.15879 13.7985 8.05179 13.1489L10.5108 10.43C10.6972 10.2246 10.8059 9.94489 10.814 9.65005C10.822 9.3552 10.7287 9.06838 10.5538 8.85028L6.85879 4.23593C6.68384 4.01714 6.44067 3.88444 6.18095 3.86599C5.92122 3.84754 5.66539 3.9448 5.46779 4.13712L3.29779 6.25066C3.1249 6.44772 3.02171 6.71 3.00779 6.98773C2.99279 7.27166 2.70679 13.9973 7.29879 19.2147C11.3048 23.7632 16.3228 24.0959 17.7048 24.0959C17.9068 24.0959 18.0308 24.0891 18.0638 24.0868C18.3083 24.0713 18.5391 23.9536 18.7118 23.7563L20.5718 21.2907C20.7413 21.0665 20.8271 20.776 20.811 20.481C20.795 20.1861 20.6783 19.9098 20.4858 19.711L16.4218 15.5134Z" fill="white"/>
</g>
</svg>
