<svg width="24" height="28" viewBox="0 0 24 28" fill="none" xmlns="http://www.w3.org/2000/svg">
<g id="carbon:location-filled">
<path id="Vector" d="M12 1.97705C9.81276 1.97998 7.71584 2.96807 6.16923 4.72456C4.62261 6.48105 3.75259 8.86252 3.75001 11.3466C3.74739 13.3765 4.33124 15.3514 5.41201 16.9683C5.41201 16.9683 5.63701 17.3047 5.67376 17.3533L12 25.8267L18.3293 17.349C18.3623 17.3039 18.588 16.9683 18.588 16.9683L18.5888 16.9657C19.669 15.3496 20.2526 13.3756 20.25 11.3466C20.2474 8.86252 19.3774 6.48105 17.8308 4.72456C16.2842 2.96807 14.1873 1.97998 12 1.97705ZM12 14.7537C11.4067 14.7537 10.8266 14.5538 10.3333 14.1795C9.83995 13.8051 9.45543 13.273 9.22837 12.6504C9.00131 12.0278 8.9419 11.3428 9.05765 10.6819C9.17341 10.021 9.45913 9.41388 9.87869 8.93739C10.2982 8.46089 10.8328 8.1364 11.4147 8.00494C11.9967 7.87347 12.5999 7.94094 13.1481 8.19882C13.6962 8.4567 14.1648 8.89339 14.4944 9.45369C14.8241 10.014 15 10.6727 15 11.3466C14.999 12.2498 14.6826 13.1158 14.1202 13.7545C13.5578 14.3932 12.7954 14.7525 12 14.7537Z" fill="white"/>
</g>
</svg>
