<svg width="243" height="40" viewBox="0 0 243 40" fill="none" xmlns="http://www.w3.org/2000/svg">
<path d="M0 40H18.2645V33.7118H4.58249V0.640464H0V40Z" fill="white"/>
<path d="M37.2103 40C40.6471 40 43.3639 38.5444 45.3605 35.575C47.3572 32.6638 48.3719 28.2387 48.4046 22.3581V0H43.8221V22.6492C43.8221 26.3173 43.233 29.0539 42.0873 30.8588C40.9417 32.722 39.3378 33.6536 37.2757 33.6536C35.2136 33.6536 33.6097 32.6638 32.4314 30.7424C31.2857 28.8792 30.6966 26.0844 30.6966 22.4163V0H26.1141V22.6492C26.1468 28.4134 27.1288 32.722 29.1254 35.6332C31.0894 38.5444 33.7734 40 37.2103 40Z" fill="white"/>
<path d="M56.2557 40H61.6565L68.3993 25.3857L75.0767 40H80.6411L71.3452 19.8544L80.2484 0.640464H74.8476L68.4975 14.4396L62.1802 0.640464H56.6158L65.5844 19.9709L56.2557 40Z" fill="white"/>
<path d="M88.5071 33.8282V40H108.146V33.8282H88.5071ZM88.5071 17.0597V23.2314H108.146V17.0597H88.5071ZM88.5071 0.640464V6.81223H108.146V0.640464H88.5071Z" fill="white"/>
<path d="M115.996 40H125.717C128.467 39.9418 130.856 39.0684 132.951 37.3799C135.013 35.6332 136.617 33.3042 137.795 30.3348C138.941 27.3654 139.53 24.0466 139.563 20.3202V20.2038C139.53 16.4774 138.941 13.1004 137.795 10.1892C136.617 7.27802 135.013 4.94905 132.951 3.20233C130.856 1.51383 128.467 0.640464 125.717 0.640464H115.996V40ZM120.578 33.7118V6.92868H125.717C128.467 6.9869 130.66 8.26783 132.296 10.7132C133.9 13.1587 134.718 16.361 134.751 20.3202V20.4367C134.718 24.3377 133.9 27.54 132.296 29.9272C130.66 32.3726 128.467 33.6536 125.717 33.7118H120.578Z" fill="white"/>
<path d="M158.676 20.1456H147.416V40H151.998V26.2591H157.727L164.142 40H169.51L162.505 25.0946C164.338 24.3377 165.844 22.9403 166.957 20.9607C168.103 18.9811 168.659 16.7103 168.692 13.4498V12.7511C168.692 11.0626 168.528 9.72343 168.135 8.32605C167.775 6.87045 167.252 5.64774 166.531 4.54148C165.713 3.31878 164.666 2.32897 163.389 1.63028C162.113 0.989812 160.672 0.640464 159.036 0.640464H147.416V6.92868H158.643C160.345 6.92868 161.687 7.45269 162.636 8.61718C163.553 9.72343 164.044 11.0626 164.044 13.1587V13.8573C164.044 15.8952 163.553 17.1761 162.604 18.3406C161.654 19.5051 160.345 20.1456 158.676 20.1456Z" fill="white"/>
<path d="M177.366 40H181.948V0.640464H177.366V40Z" fill="white"/>
<path d="M200.633 40H204.659L215.494 0.349344H210.518L202.695 30.0437L194.84 0.349344H189.799L200.633 40Z" fill="white"/>
<path d="M223.361 33.8282V40H243V33.8282H223.361ZM223.361 17.0597V23.2314H243V17.0597H223.361ZM223.361 0.640464V6.81223H243V0.640464H223.361Z" fill="white"/>
</svg>
