<svg width="56" height="56" viewBox="0 0 56 56" fill="none" xmlns="http://www.w3.org/2000/svg">
<rect x="4" y="4" width="48" height="48" rx="24" fill="white"/>
<rect x="4" y="4" width="48" height="48" rx="24" stroke="white" stroke-opacity="0.9" stroke-width="8"/>
<path d="M22.5 29L23.2845 30.5689C23.5499 31.0999 23.6827 31.3654 23.86 31.5954C24.0174 31.7996 24.2004 31.9826 24.4046 32.14C24.6346 32.3173 24.9001 32.4501 25.4311 32.7155L27 33.5L25.4311 34.2845C24.9001 34.5499 24.6346 34.6827 24.4046 34.86C24.2004 35.0174 24.0174 35.2004 23.86 35.4046C23.6827 35.6346 23.5499 35.9001 23.2845 36.4311L22.5 38L21.7155 36.4311C21.4501 35.9001 21.3173 35.6346 21.14 35.4046C20.9826 35.2004 20.7996 35.0174 20.5954 34.86C20.3654 34.6827 20.0999 34.5499 19.5689 34.2845L18 33.5L19.5689 32.7155C20.0999 32.4501 20.3654 32.3173 20.5954 32.14C20.7996 31.9826 20.9826 31.7996 21.14 31.5954C21.3173 31.3654 21.4501 31.0999 21.7155 30.5689L22.5 29Z" stroke="#0F0F0F" stroke-width="2" stroke-linecap="round" stroke-linejoin="round"/>
<path d="M31 18L32.1786 21.0644C32.4606 21.7976 32.6016 22.1643 32.8209 22.4726C33.0153 22.746 33.254 22.9847 33.5274 23.1791C33.8357 23.3984 34.2024 23.5394 34.9356 23.8214L38 25L34.9356 26.1786C34.2024 26.4606 33.8357 26.6016 33.5274 26.8209C33.254 27.0153 33.0153 27.254 32.8209 27.5274C32.6016 27.8357 32.4606 28.2024 32.1786 28.9356L31 32L29.8214 28.9356C29.5394 28.2024 29.3984 27.8357 29.1791 27.5274C28.9847 27.254 28.746 27.0153 28.4726 26.8209C28.1643 26.6016 27.7976 26.4606 27.0644 26.1786L24 25L27.0644 23.8214C27.7976 23.5394 28.1643 23.3984 28.4726 23.1791C28.746 22.9847 28.9847 22.746 29.1791 22.4726C29.3984 22.1643 29.5394 21.7976 29.8214 21.0644L31 18Z" stroke="#0F0F0F" stroke-width="2" stroke-linecap="round" stroke-linejoin="round"/>
</svg>
