<svg width="56" height="56" viewBox="0 0 56 56" fill="none" xmlns="http://www.w3.org/2000/svg">
<rect x="4" y="4" width="48" height="48" rx="24" fill="white"/>
<rect x="4" y="4" width="48" height="48" rx="24" stroke="white" stroke-opacity="0.9" stroke-width="8"/>
<path d="M25 28L27 30L31.5 25.5M23.3338 19.8187C24.1376 19.7545 24.9007 19.4385 25.5145 18.9154C26.9467 17.6949 29.0533 17.6949 30.4855 18.9154C31.0993 19.4385 31.8624 19.7545 32.6662 19.8187C34.5421 19.9684 36.0316 21.4579 36.1813 23.3338C36.2455 24.1376 36.5615 24.9007 37.0846 25.5145C38.3051 26.9467 38.3051 29.0533 37.0846 30.4855C36.5615 31.0993 36.2455 31.8624 36.1813 32.6662C36.0316 34.5421 34.5421 36.0316 32.6662 36.1813C31.8624 36.2455 31.0993 36.5615 30.4855 37.0846C29.0533 38.3051 26.9467 38.3051 25.5145 37.0846C24.9007 36.5615 24.1376 36.2455 23.3338 36.1813C21.4579 36.0316 19.9684 34.5421 19.8187 32.6662C19.7545 31.8624 19.4385 31.0993 18.9154 30.4855C17.6949 29.0533 17.6949 26.9467 18.9154 25.5145C19.4385 24.9007 19.7545 24.1376 19.8187 23.3338C19.9684 21.4579 21.4579 19.9684 23.3338 19.8187Z" stroke="#0F0F0F" stroke-width="2" stroke-linecap="round" stroke-linejoin="round"/>
</svg>
