<svg width="20" height="20" viewBox="0 0 20 20" fill="none" xmlns="http://www.w3.org/2000/svg">
<g clip-path="url(#clip0_2_429)">
<path d="M10.0001 1.66669V3.75002M10.0001 1.66669C5.39771 1.66669 1.66675 5.39765 1.66675 10M10.0001 1.66669C14.6025 1.66669 18.3334 5.39765 18.3334 10M10.0001 16.25V18.3334M10.0001 18.3334C14.6025 18.3334 18.3334 14.6024 18.3334 10M10.0001 18.3334C5.39771 18.3334 1.66675 14.6024 1.66675 10M3.75008 10H1.66675M18.3334 10H16.2501M15.8988 15.8987L14.4207 14.4206M4.10144 15.8987L5.58104 14.4191M4.10144 4.16669L5.54848 5.61373M15.8988 4.16669L11.25 8.75002M11.6667 10C11.6667 10.9205 10.9206 11.6667 10.0001 11.6667C9.07961 11.6667 8.33342 10.9205 8.33342 10C8.33342 9.07955 9.07961 8.33335 10.0001 8.33335C10.9206 8.33335 11.6667 9.07955 11.6667 10Z" stroke="black" stroke-width="1.5" stroke-linecap="round" stroke-linejoin="round"/>
</g>
<defs>
<clipPath id="clip0_2_429">
<rect width="20" height="20" fill="white"/>
</clipPath>
</defs>
</svg>
