<svg width="21" height="20" viewBox="0 0 21 20" fill="none" xmlns="http://www.w3.org/2000/svg">
<path d="M19.0002 17.5V15.8333C19.0002 14.2801 17.9379 12.9751 16.5002 12.605M13.5835 2.7423C14.8051 3.23679 15.6668 4.43443 15.6668 5.83333C15.6668 7.23224 14.8051 8.42988 13.5835 8.92437M14.8335 17.5C14.8335 15.9469 14.8335 15.1703 14.5798 14.5577C14.2414 13.741 13.5925 13.092 12.7758 12.7537C12.1632 12.5 11.3866 12.5 9.8335 12.5H7.3335C5.78036 12.5 5.00379 12.5 4.39122 12.7537C3.57446 13.092 2.92554 13.741 2.58723 14.5577C2.3335 15.1703 2.3335 15.9469 2.3335 17.5M11.9168 5.83333C11.9168 7.67428 10.4244 9.16667 8.5835 9.16667C6.74255 9.16667 5.25016 7.67428 5.25016 5.83333C5.25016 3.99238 6.74255 2.5 8.5835 2.5C10.4244 2.5 11.9168 3.99238 11.9168 5.83333Z" stroke="black" stroke-width="1.5" stroke-linecap="round" stroke-linejoin="round"/>
</svg>
