<svg width="20" height="20" viewBox="0 0 20 20" fill="none" xmlns="http://www.w3.org/2000/svg">
<path fill-rule="evenodd" clip-rule="evenodd" d="M9.21618 0.861348C13.6615 0.490616 17.4061 3.83522 17.4998 8.14768L17.5 8.16578C17.5 9.67319 17.0278 11.082 16.1909 12.2919L16.1826 12.3037L11.9529 18.1967C11.9445 18.2084 11.9358 18.2198 11.9268 18.2311C10.9546 19.4473 9.04244 19.5221 8.10822 18.193L3.87713 12.2981C2.77422 10.7344 2.19465 8.76023 2.66335 6.67094C3.24127 3.53814 5.97285 1.23191 9.19074 0.863863C9.19921 0.862894 9.20769 0.862056 9.21618 0.861348ZM9.36744 2.5212C6.7919 2.821 4.72361 4.65449 4.2999 6.98674C4.29773 6.99865 4.29531 7.01052 4.29262 7.02233C3.93949 8.57734 4.3541 10.0813 5.23718 11.3347L9.47075 17.2331C9.69634 17.5556 10.259 17.6311 10.6134 17.2046L14.8242 11.3379C15.4759 10.3936 15.8315 9.31771 15.8333 8.17482C15.7562 4.8596 12.8749 2.2356 9.36744 2.5212Z" fill="black"/>
<path fill-rule="evenodd" clip-rule="evenodd" d="M10 6.58341C9.12555 6.58341 8.41667 7.2923 8.41667 8.16675C8.41667 9.0412 9.12555 9.75008 10 9.75008C10.8745 9.75008 11.5833 9.0412 11.5833 8.16675C11.5833 7.2923 10.8745 6.58341 10 6.58341ZM6.75 8.16675C6.75 6.37182 8.20507 4.91675 10 4.91675C11.7949 4.91675 13.25 6.37182 13.25 8.16675C13.25 9.96167 11.7949 11.4167 10 11.4167C8.20507 11.4167 6.75 9.96167 6.75 8.16675Z" fill="black"/>
<path fill-rule="evenodd" clip-rule="evenodd" d="M10 6.58341C9.12555 6.58341 8.41667 7.2923 8.41667 8.16675C8.41667 9.0412 9.12555 9.75008 10 9.75008C10.8745 9.75008 11.5833 9.0412 11.5833 8.16675C11.5833 7.2923 10.8745 6.58341 10 6.58341ZM6.75 8.16675C6.75 6.37182 8.20507 4.91675 10 4.91675C11.7949 4.91675 13.25 6.37182 13.25 8.16675C13.25 9.96167 11.7949 11.4167 10 11.4167C8.20507 11.4167 6.75 9.96167 6.75 8.16675Z" fill="black"/>
<path fill-rule="evenodd" clip-rule="evenodd" d="M10 6.58341C9.12555 6.58341 8.41667 7.2923 8.41667 8.16675C8.41667 9.0412 9.12555 9.75008 10 9.75008C10.8745 9.75008 11.5833 9.0412 11.5833 8.16675C11.5833 7.2923 10.8745 6.58341 10 6.58341ZM6.75 8.16675C6.75 6.37182 8.20507 4.91675 10 4.91675C11.7949 4.91675 13.25 6.37182 13.25 8.16675C13.25 9.96167 11.7949 11.4167 10 11.4167C8.20507 11.4167 6.75 9.96167 6.75 8.16675Z" fill="black"/>
</svg>
