<svg width="93" height="32" viewBox="0 0 93 32" fill="none" xmlns="http://www.w3.org/2000/svg">
<path d="M15.9996 1.88281C12.2982 2.00626 8.79349 3.57923 6.24104 6.26264C3.68858 8.94605 2.29277 12.525 2.3545 16.2279C2.41624 19.9309 3.93057 23.4613 6.57105 26.0582C9.21154 28.655 12.7667 30.1103 16.4702 30.1103C20.1737 30.1103 23.7288 28.655 26.3693 26.0582C29.0098 23.4613 30.5241 19.9309 30.5859 16.2279C30.6476 12.525 29.2518 8.94605 26.6993 6.26264C24.1469 3.57923 20.6422 2.00626 16.9408 1.88281H15.9996ZM35.7643 1.88281C32.0629 2.00626 28.5582 3.57923 26.0057 6.26264C23.4533 8.94605 22.0575 12.525 22.1192 16.2279C22.1809 19.9309 23.6953 23.4613 26.3357 26.0582C28.9762 28.655 32.5314 30.1103 36.2349 30.1103C39.9384 30.1103 43.4935 28.655 46.134 26.0582C48.7745 23.4613 50.2888 19.9309 50.3506 16.2279C50.4123 12.525 49.0165 8.94605 46.464 6.26264C43.9116 3.57923 40.4069 2.00626 36.7055 1.88281H35.7643ZM55.529 1.88281C51.8276 2.00626 48.3229 3.57923 45.7704 6.26264C43.218 8.94605 41.8222 12.525 41.8839 16.2279C41.9456 19.9309 43.46 23.4613 46.1004 26.0582C48.7409 28.655 52.2961 30.1103 55.9996 30.1103C59.7031 30.1103 63.2582 28.655 65.8987 26.0582C68.5392 23.4613 70.0535 19.9309 70.1153 16.2279C70.177 12.525 68.7812 8.94605 66.2287 6.26264C63.6763 3.57923 60.1716 2.00626 56.4702 1.88281H55.529ZM75.2937 1.88281C71.5923 2.00626 68.0876 3.57923 65.5351 6.26264C62.9827 8.94605 61.5869 12.525 61.6486 16.2279C61.7103 19.9309 63.2247 23.4613 65.8651 26.0582C68.5056 28.655 72.0608 30.1103 75.7643 30.1103C79.4677 30.1103 83.0229 28.655 85.6634 26.0582C88.3039 23.4613 89.8182 19.9309 89.88 16.2279C89.9417 12.525 88.5459 8.94605 85.9934 6.26264C83.441 3.57923 79.9363 2.00626 76.2349 1.88281H75.2937Z" stroke="black" stroke-width="3"/>
</svg>
