<svg width="47" height="48" viewBox="0 0 47 48" fill="none" xmlns="http://www.w3.org/2000/svg">
<g filter="url(#filter0_dd_2_115)">
<path d="M23.946 38.0681C13.9685 38.0681 5.87859 29.9782 5.87859 20.0007C5.87859 10.0232 13.9685 1.93328 23.946 1.93328C33.9235 1.93328 42.0134 10.0232 42.0134 20.0007C42.0134 29.9782 33.9235 38.0681 23.946 38.0681ZM23.946 0.980469C13.4381 0.980469 4.92578 9.49283 4.92578 20.0007C4.92578 30.5086 13.4381 39.0209 23.946 39.0209C34.4539 39.0209 42.9662 30.5086 42.9662 20.0007C42.9662 9.49283 34.4449 0.980469 23.946 0.980469ZM23.946 38.2209C26.4089 38.2209 28.791 37.7355 31.0381 36.7917C33.2044 35.8749 35.155 34.5625 36.8269 32.8906C38.4988 31.2187 39.8112 29.2681 40.728 27.1018C41.6808 24.8546 42.1572 22.4726 42.1572 20.0097C42.1572 17.5468 41.6719 15.1647 40.728 12.9175C39.8112 10.7513 38.4988 8.80069 36.8269 7.12878C35.155 5.45687 33.2044 4.14451 31.0381 3.22766C28.791 2.27485 26.4089 1.79845 23.946 1.79845C21.4831 1.79845 19.1011 2.28384 16.8539 3.22766C14.6876 4.14451 12.737 5.45687 11.0651 7.12878C9.3932 8.80069 8.08084 10.7513 7.16398 12.9175C6.21117 15.1647 5.73477 17.5468 5.73477 20.0097C5.73477 22.4726 6.22016 24.8546 7.16398 27.1018C8.08084 29.2681 9.3932 31.2187 11.0651 32.8906C12.737 34.5625 14.6876 35.8749 16.8539 36.7917C19.1011 37.7355 21.4831 38.2209 23.946 38.2209ZM23.946 1.13328C26.4898 1.13328 28.9617 1.62766 31.2898 2.61642C33.537 3.56923 35.5595 4.92654 37.2853 6.66137C39.0202 8.3962 40.3775 10.4097 41.3303 12.6569C42.3101 14.985 42.8134 17.4569 42.8134 20.0007C42.8134 22.5445 42.319 25.0164 41.3303 27.3445C40.3775 29.5917 39.0202 31.6052 37.2853 33.34C35.5505 35.0749 33.537 36.4322 31.2898 37.385C28.9617 38.3647 26.4898 38.8681 23.946 38.8681C21.4022 38.8681 18.9303 38.3737 16.6022 37.385C14.355 36.4322 12.3325 35.0749 10.6067 33.34C8.88084 31.6052 7.51455 29.5917 6.56174 27.3445C5.58196 25.0164 5.07859 22.5445 5.07859 20.0007C5.07859 17.4569 5.58196 14.985 6.56174 12.6569C7.51455 10.4097 8.87185 8.3962 10.6067 6.66137C12.3415 4.92654 14.355 3.56923 16.6022 2.61642C18.9213 1.62766 21.3932 1.13328 23.946 1.13328Z" fill="black"/>
<path d="M12.7366 8.37749C12.5029 8.17974 12.1344 8.17075 11.9726 8.36851L10.5703 10.0404L11.4332 10.7685L12.8175 9.11457C12.9973 8.89884 12.9973 8.59323 12.7366 8.37749ZM14.4355 10.3101C14.6332 10.0764 14.5973 9.71682 14.3186 9.48311C14.0669 9.27637 13.6984 9.3303 13.5366 9.52806L12.0624 11.2809L12.9793 12.0449L14.4355 10.3101Z" fill="black"/>
<path d="M23.9463 1.93164C13.9688 1.93164 5.87891 10.0215 5.87891 19.9991C5.87891 29.9766 13.9688 38.0665 23.9463 38.0665C33.9239 38.0665 42.0137 29.9766 42.0137 19.9991C42.0137 10.0215 33.9239 1.93164 23.9463 1.93164ZM21.1778 2.59681H22.616L23.9194 6.00355L25.2137 2.59681H26.6519V7.36984H25.6991V4.03501L24.4407 7.36984H23.398L22.1396 4.03501V7.36984H21.1868L21.1778 2.59681ZM9.13284 10.453L11.4609 7.67546C11.9463 7.10018 12.6205 6.64175 13.2587 7.18108C13.4564 7.35187 13.5373 7.4058 13.78 7.83726C13.834 7.99007 13.8789 8.27771 13.771 8.54737C14.3283 8.2058 14.9216 8.31366 15.3081 8.69119C15.9014 9.26647 15.8115 9.93164 15.2542 10.5968L12.8003 13.5271L9.13284 10.453ZM23.9463 32.1159C17.2587 32.1159 11.8295 26.6957 11.8295 19.9991C11.8295 13.3114 17.2497 7.8822 23.9463 7.8822C30.634 7.8822 36.0632 13.3024 36.0632 19.9991C36.0542 26.6867 30.634 32.1159 23.9463 32.1159ZM35.1463 13.3564L34.3283 12.3676L35.8924 10.0125L35.8834 10.0036L33.2767 11.1182L32.4497 10.1384L35.1733 6.53389L35.8654 7.36984L34.1576 9.66198L36.8092 8.48445L37.5553 9.38333L35.9194 11.7653L38.4812 10.5069L39.1733 11.3429L35.1463 13.3564Z" fill="black"/>
<path d="M12.5479 20.0001H23.9366V8.61133C17.6535 8.61133 12.5479 13.708 12.5479 20.0001ZM23.9456 20.0001V31.3889C30.2377 31.3889 35.3344 26.2922 35.3344 20.0001H23.9456Z" fill="black"/>
</g>
<defs>
<filter id="filter0_dd_2_115" x="0" y="0" width="48" height="48" filterUnits="userSpaceOnUse" color-interpolation-filters="sRGB">
<feFlood flood-opacity="0" result="BackgroundImageFix"/>
<feColorMatrix in="SourceAlpha" type="matrix" values="0 0 0 0 0 0 0 0 0 0 0 0 0 0 0 0 0 0 127 0" result="hardAlpha"/>
<feOffset dy="4"/>
<feGaussianBlur stdDeviation="2"/>
<feComposite in2="hardAlpha" operator="out"/>
<feColorMatrix type="matrix" values="0 0 0 0 0 0 0 0 0 0 0 0 0 0 0 0 0 0 0.25 0"/>
<feBlend mode="normal" in2="BackgroundImageFix" result="effect1_dropShadow_2_115"/>
<feColorMatrix in="SourceAlpha" type="matrix" values="0 0 0 0 0 0 0 0 0 0 0 0 0 0 0 0 0 0 127 0" result="hardAlpha"/>
<feOffset dy="4"/>
<feGaussianBlur stdDeviation="2"/>
<feComposite in2="hardAlpha" operator="out"/>
<feColorMatrix type="matrix" values="0 0 0 0 0 0 0 0 0 0 0 0 0 0 0 0 0 0 0.25 0"/>
<feBlend mode="normal" in2="effect1_dropShadow_2_115" result="effect2_dropShadow_2_115"/>
<feBlend mode="normal" in="SourceGraphic" in2="effect2_dropShadow_2_115" result="shape"/>
</filter>
</defs>
</svg>
