<svg width="43" height="36" viewBox="0 0 43 36" fill="none" xmlns="http://www.w3.org/2000/svg">
<g clip-path="url(#clip0_2_181)">
<path fill-rule="evenodd" clip-rule="evenodd" d="M31.4554 3.15625C30.417 7.52192 30.082 9.57043 29.3115 12.7271C28.5411 15.8167 27.9382 18.6376 26.9332 19.9809C25.9283 21.3242 24.5549 21.6936 23.5165 21.7607C23.0141 21.8615 22.6791 21.8615 21.6407 21.8615C20.6023 21.8615 20.2003 21.8615 19.7648 21.7607C18.8269 21.66 17.4535 21.3242 16.3481 19.9809C15.3097 18.604 14.7402 15.7831 13.9698 12.7271C13.1994 9.57043 12.7639 7.52192 11.826 3.15625C11.826 3.15625 10.8881 3.15625 10.3856 3.257C9.78265 3.257 9.34719 3.257 8.84473 3.35774C8.84473 3.35774 9.44768 12.4249 9.68216 16.1861C9.95014 20.216 10.4526 26.9324 10.8881 32.0704C10.8881 32.0704 11.7255 32.2383 13.0989 32.2383C14.4723 32.4062 15.1422 32.507 15.1422 32.507C15.7452 30.2906 16.5156 27.1339 17.286 25.757C17.956 24.6488 18.9944 24.548 19.5973 24.4809C20.5353 24.3801 21.3057 24.313 21.6407 24.313C21.9756 24.313 22.7461 24.313 23.684 24.4809C24.287 24.5816 25.2919 24.6488 25.9953 25.757C26.8328 27.1339 27.5362 30.1898 28.1391 32.507C28.1391 32.507 28.7421 32.507 30.1825 32.4062C31.5559 32.3055 32.3933 32.2383 32.3933 32.2383C32.8288 27.1003 33.3312 20.3503 33.5992 16.354C33.8672 12.5257 34.4366 3.52565 34.4366 3.52565C33.9342 3.42491 33.4987 3.42491 32.8958 3.35774C32.4938 3.15625 31.4554 3.15625 31.4554 3.15625Z" fill="black"/>
<path fill-rule="evenodd" clip-rule="evenodd" d="M40.4328 18.5373C40.0978 23.2388 39.6624 26.1269 39.1599 28.1754C38.6575 29.9552 38.0545 31.1642 37.1166 32.0037C35.5757 33.4478 33.4654 33.7836 32.2595 33.9851C29.6132 34.4216 25.0911 34.5896 21.6074 34.5896C18.1236 34.5896 13.6015 34.4216 10.9552 33.9851C9.74934 33.8172 7.63902 33.4813 6.09814 32.0037C5.16022 31.1642 4.55727 29.9552 4.05481 28.1754C3.45186 26.1269 3.08339 23.306 2.74842 18.5373C2.58093 15.7164 2.58093 11.0149 2.91591 8.52985C3.35137 4.8694 5.12672 2.98881 8.87841 2.28358C10.4863 1.94776 12.8981 1.6791 15.1089 1.61194C16.9177 1.54478 19.899 1.44403 21.5069 1.44403C23.1147 1.44403 26.096 1.54478 27.9048 1.61194C30.1157 1.71269 32.494 1.94776 34.3028 2.28358C38.0545 2.95522 39.8299 4.83582 40.2653 8.52985C40.4998 11.1157 40.6003 15.7164 40.4328 18.5373ZM42.4761 8.6306C41.8732 2.72015 38.1215 1.44403 34.8053 0.873134C33.0969 0.604478 30.2161 0.369403 28.2398 0.268657C26.5984 0.100746 22.6793 0 21.5069 0C20.301 0 16.3818 0.100746 14.7739 0.16791C12.8981 0.268657 9.91683 0.503731 8.20847 0.839552C4.89224 1.44403 1.14055 2.6194 0.537603 8.59702C0.370117 10.209 0.370117 12.3582 0.370117 14.5746C0.470609 18.3358 0.705089 20.8881 0.872576 22.6007C0.973067 23.8097 1.47553 27.4701 2.07848 29.25C2.91591 31.8022 3.68634 32.5746 4.55727 33.347C6.16514 34.7239 8.91191 35.1269 9.51486 35.3284C12.5966 35.9328 18.7266 36 21.4399 36C24.1532 36 30.3166 35.8993 33.3649 35.3284C33.9678 35.2276 36.6141 34.8246 38.3225 33.347C39.2604 32.5746 39.9303 31.8022 40.8013 29.25C41.4042 27.3694 41.9067 23.7761 42.0072 22.6007C42.1747 20.8209 42.5096 18.3358 42.5096 14.5746C42.6436 12.291 42.6436 10.2425 42.4761 8.6306Z" fill="black"/>
</g>
<defs>
<clipPath id="clip0_2_181">
<rect width="42.24" height="36" fill="white" transform="translate(0.380005)"/>
</clipPath>
</defs>
</svg>
