<svg width="71" height="36" viewBox="0 0 71 36" fill="none" xmlns="http://www.w3.org/2000/svg">
<g clip-path="url(#clip0_2_173)">
<path d="M35.1603 36C54.569 36 70.3203 27.9148 70.3203 18C70.3203 8.08525 54.628 0 35.1603 0C15.7515 0 0.000244141 8.08525 0.000244141 18C0.000244141 27.9148 15.6925 36 35.1603 36ZM41.7675 27.1475C41.1776 28.5049 40.1747 31.3377 37.8739 32.577C37.166 32.9311 36.3401 33.1082 35.5142 33.1082C35.3372 33.1082 35.2192 33.1082 35.1603 33.1082C29.2019 33.1672 23.3026 32.341 17.5802 30.6885L17.4033 30.6295C16.9313 30.4525 16.6953 30.2754 16.6953 29.9803C16.6953 29.8623 16.7543 29.7443 16.7543 29.6852C16.8133 29.5672 16.8723 29.5082 16.9313 29.4492L17.2263 29.1541C18.3472 28.1508 21.8868 25.6131 28.553 23.1344C31.2667 22.0131 34.0394 21.1869 36.8711 20.4787C38.6999 20.0656 45.3071 19.0623 41.7675 27.1475ZM59.5835 9.02951C59.6425 8.91148 59.7015 8.79344 59.8195 8.73443C59.9374 8.67541 60.0554 8.61639 60.1734 8.61639C60.4094 8.61639 60.7044 8.67541 60.8813 8.85246C65.0109 11.3902 67.4886 14.577 67.4886 18C67.4886 24.1967 59.5245 29.5672 48.0798 31.8689C47.3719 32.0459 46.8409 31.9869 46.7229 31.8689C46.546 31.7508 46.546 31.5738 46.7229 31.3377C46.7819 31.1607 46.8999 31.0426 47.0179 30.9246C53.2122 23.6066 57.9907 12.8066 59.2885 9.67869C59.4065 9.38361 59.4655 9.14754 59.5835 9.02951ZM28.671 8.79344C29.2609 7.43607 30.2638 4.54426 32.5645 3.36393C33.2725 3.00984 34.0984 2.83279 34.9243 2.83279C35.1013 2.83279 35.2192 2.83279 35.2782 2.83279C41.2366 2.77377 47.1359 3.6 52.8582 5.25246L53.0352 5.31148C53.5072 5.48852 53.7431 5.66557 53.7431 5.96066C53.7431 6.07869 53.6842 6.19672 53.6842 6.25574C53.6252 6.37377 53.5662 6.43279 53.5072 6.4918L53.0942 6.8459C51.9733 7.84918 48.4927 10.3869 41.8265 12.9246C39.1128 14.0459 36.3401 14.9311 33.5084 15.5803C31.7976 15.9344 25.1904 16.9377 28.671 8.79344ZM22.2997 4.13115C23.0666 4.01311 23.5386 4.01311 23.7156 4.13115C23.7745 4.19016 23.7745 4.3082 23.7745 4.42623C23.7745 4.54426 23.7156 4.60328 23.7156 4.72131C23.5976 4.89836 23.5386 5.01639 23.4206 5.13443C17.1673 12.4525 12.3888 23.2525 11.091 26.3803C10.973 26.6164 10.914 26.7934 10.796 26.9705C10.737 27.0885 10.678 27.2066 10.56 27.2656C10.4421 27.3246 10.3241 27.3836 10.2061 27.3836C9.97011 27.3836 9.67515 27.3246 9.49817 27.1475C5.36864 24.6098 2.89092 21.423 2.89092 18C2.89092 11.8033 10.855 6.4918 22.2997 4.13115Z" fill="#0F0F0F"/>
</g>
<defs>
<clipPath id="clip0_2_173">
<rect width="70.32" height="36" fill="white" transform="translate(0.000244141)"/>
</clipPath>
</defs>
</svg>
