<svg width="102" height="24" viewBox="0 0 102 24" fill="none" xmlns="http://www.w3.org/2000/svg">
<path d="M58.8382 21.2863C58.8382 21.4802 58.8907 21.5859 59.0133 21.5859C59.1008 21.5859 59.1709 21.5507 59.2584 21.4978L90.849 0.828194C91.4093 0.45815 91.9172 0.264317 92.6702 0.264317H99.6222C100.69 0.264317 101.408 0.986784 101.408 2.06167V15.4009C101.408 17.0044 101.058 17.9383 99.6222 18.8018L91.1992 23.8943C91.0941 23.9648 90.9891 24 90.919 24C90.8139 24 90.7264 23.9295 90.7264 23.63V8.05286C90.7264 7.87665 90.6739 7.7533 90.5513 7.7533C90.4637 7.7533 90.3937 7.78855 90.3061 7.84141L67.2086 22.9427C66.5607 23.3656 66.0353 23.489 65.4399 23.489H50.1175C49.0493 23.489 48.3313 22.7665 48.3313 21.6916V2.48458C48.3313 2.34361 48.2613 2.22026 48.1562 2.22026C48.0686 2.22026 47.9986 2.25551 47.911 2.30837L32.6761 11.5242C32.5185 11.6123 32.4835 11.7004 32.4835 11.7709C32.4835 11.8414 32.501 11.8943 32.6236 12L43.4982 22.9427C43.6383 23.0837 43.7433 23.2071 43.7433 23.3128C43.7433 23.4361 43.5857 23.5066 43.3931 23.5066H33.5517C32.7812 23.5066 32.1858 23.3833 31.7655 22.9604L25.1637 16.3172C25.0937 16.2467 25.0412 16.2115 24.9711 16.2115C24.9186 16.2115 24.831 16.2467 24.761 16.2819L13.7288 22.9604C13.0634 23.3656 12.6081 23.489 11.9426 23.489H1.78604C0.717845 23.489 -0.00012207 22.7665 -0.00012207 21.6916V8.59912C-0.00012207 6.97797 0.350106 6.06167 1.78604 5.19824L10.2616 0.0704846C10.3491 0.0176211 10.4192 0 10.4892 0C10.6118 0 10.6818 0.140969 10.6818 0.422908V17.9383C10.6818 18.1145 10.7344 18.2026 10.8569 18.2026C10.927 18.2026 11.0145 18.1498 11.1021 18.0969L39.7332 0.77533C40.4162 0.370044 40.8364 0.246696 41.6245 0.246696H57.0345C58.1027 0.246696 58.8206 0.969163 58.8206 2.04405L58.8382 21.2863Z" fill="#05141F"/>
</svg>
