<svg width="41" height="40" viewBox="0 0 41 40" fill="none" xmlns="http://www.w3.org/2000/svg">
<g clip-path="url(#clip0_2_146)">
<path d="M20.9074 19.9009L21.7788 19.3669L32.9103 26.9846L20.9074 19.9009ZM20.2609 19.4793L19.4457 19.0014L20.3734 4.46875L20.2609 19.4793ZM19.2771 19.4231L15.5947 22.487L20.0079 19.8728L19.2771 19.4231Z" fill="black"/>
<path d="M20.486 0.167969C9.52327 0.167969 0.640625 9.05061 0.640625 20.0134C0.640625 30.9761 9.52327 39.8588 20.486 39.8588C31.4488 39.8588 40.3314 30.9761 40.3314 20.0134C40.3314 9.05061 31.4488 0.167969 20.486 0.167969ZM20.486 38.7625C15.9604 38.7625 11.7158 37.2446 8.53943 34.4898C5.47548 31.7913 3.08616 27.4905 2.49586 22.9368C3.90134 31.6226 11.4066 38.2284 20.486 38.2284C30.5493 38.2284 38.7011 30.0766 38.7011 20.0134C38.7011 15.825 37.155 11.7491 34.7657 8.68519C37.155 10.5404 39.2351 15.7969 39.2351 20.0134C39.2633 30.3858 30.8585 38.7625 20.486 38.7625ZM18.7713 18.5798L20.3736 2.13564H20.5141L20.6828 19.4512L23.4375 17.7927L20.6828 2.13564C30.4649 2.21997 38.3637 10.2031 38.3637 19.9853C38.3637 23.1335 37.5486 26.085 36.115 28.6711L23.7186 18.2987L22.538 18.9733L36.0306 28.8398C36.0025 28.896 35.9744 28.9522 35.9182 29.0084L20.739 20.2664V23.3303L35.8058 29.149C32.6856 34.3493 26.9793 37.8349 20.486 37.8349C13.9927 37.8349 8.28644 34.3493 5.16628 29.1771L20.233 23.3303V20.2382L5.05384 28.9522C5.02573 28.896 4.99762 28.8398 4.9414 28.7836L18.3778 18.9452L17.1972 18.2706L4.82896 28.5868C3.42348 26.0288 2.6083 23.1054 2.6083 19.9571C2.6083 10.2312 10.3947 2.33241 20.0644 2.10753L17.6469 17.9333L18.7713 18.5798ZM20.486 1.23613C10.1417 1.23613 1.7369 9.64091 1.7369 19.9853C1.7369 24.2017 3.25482 28.1652 5.58792 31.6226C6.37499 33.1125 7.21828 34.012 8.37077 35.2207C3.90134 31.6508 1.00605 26.1413 1.00605 19.9853C1.00605 9.21927 9.72003 0.505284 20.486 0.505284C31.252 0.505284 40.1347 9.6128 39.7973 19.9853C39.5443 9.86579 30.6898 1.23613 20.486 1.23613Z" fill="black"/>
</g>
<defs>
<clipPath id="clip0_2_146">
<rect width="40" height="40" fill="white" transform="translate(0.5)"/>
</clipPath>
</defs>
</svg>
