<svg width="51" height="42" viewBox="0 0 51 42" fill="none" xmlns="http://www.w3.org/2000/svg">
<path d="M7.54916 14.6642C10.1574 7.10219 17.3686 1.9927 25.5003 1.9927C33.632 1.9927 40.8432 7.10219 43.4514 14.6642V14.7153H49.1794V14.0511L46.8269 13.7956C45.3437 13.6423 45.0369 12.9781 44.6277 12.1606L44.5254 11.9562C41.0989 4.70073 33.632 0 25.5003 0C17.3686 0 9.90173 4.70073 6.42402 11.9562L6.32173 12.1606C5.96373 12.9781 5.60573 13.6423 4.17373 13.7956L1.77002 14.0511V14.7153H7.49802L7.54916 14.6642Z" fill="black"/>
<path d="M43.5026 27.2852V27.3363C40.8432 34.8983 33.632 40.0078 25.5003 40.0078C17.3686 40.0078 10.1574 34.8983 7.54916 27.3363V27.2852H1.77002V27.9494L4.17373 28.2049C5.65688 28.3581 5.96373 29.0224 6.37288 29.8399L6.47516 30.0443C9.85059 37.2998 17.3686 42.0005 25.5003 42.0005C33.632 42.0005 41.0989 37.2998 44.5766 30.0443L44.6789 29.8399C45.088 29.0224 45.3949 28.4092 46.878 28.2049L49.2817 27.9494V27.2852H43.5026Z" fill="black"/>
<path d="M12.049 18.3438H10.7192V24.1686H12.049V18.3438Z" fill="black"/>
<path d="M7.59994 24.1175V18.3438H6.32137V22.6868L2.07651 18.3438H0.439941V24.1175H1.71851V19.7744L6.01451 24.1175H7.59994Z" fill="black"/>
<path d="M36.7006 18.3438L33.1206 24.1686H34.6549L35.2686 23.1467H39.4112L40.0249 24.1686H41.5592L37.9792 18.3438H36.7006ZM38.7975 22.0226H35.9335L37.3655 19.6722L38.7975 22.0226Z" fill="black"/>
<path d="M29.4886 22.9407C29.4375 22.9407 29.284 22.9407 29.2329 22.9407H23.8629V24.1158H29.284C29.3352 24.1158 29.642 24.1158 29.6932 24.1158C30.8183 24.0136 31.2786 23.145 31.2786 22.3275C31.2786 21.51 30.7672 20.6925 29.7443 20.5903C29.5909 20.5903 29.4375 20.5903 29.3352 20.5903H25.8063C25.6529 20.5903 25.5506 20.5903 25.3972 20.5392C25.1415 20.4881 24.988 20.2837 25.0392 20.0282C25.0392 19.7728 25.1926 19.5684 25.4483 19.5173C25.5506 19.4662 25.704 19.4662 25.8063 19.4662H30.9206V18.291H25.7552C25.6018 18.291 25.3972 18.291 25.2438 18.3421C24.3743 18.4443 23.7095 19.1596 23.7095 20.0282C23.7095 20.7436 24.1698 21.6122 25.1926 21.7144C25.3972 21.7144 25.5506 21.7655 25.7552 21.7144H29.1818C29.2329 21.7144 29.3863 21.7144 29.4375 21.7144C29.7443 21.7655 29.9489 22.0209 29.9489 22.2764C29.9489 22.6341 29.7443 22.8896 29.4886 22.9407Z" fill="black"/>
<path d="M20.0785 22.9423C20.0273 22.9423 19.8739 22.9423 19.8227 22.9423H14.5039V24.1175H19.8739C19.925 24.1175 20.2319 24.1175 20.283 24.1175C21.4082 24.0153 21.9196 23.1467 21.9196 22.3802C21.9196 21.6138 21.4082 20.7452 20.3853 20.643C20.2319 20.643 20.0785 20.643 19.9762 20.643H16.4473C16.2939 20.643 16.1916 20.643 16.0382 20.5919C15.7825 20.5408 15.629 20.3365 15.6802 20.081C15.6802 19.8255 15.8336 19.6211 16.0893 19.57C16.1916 19.5189 16.345 19.5189 16.4473 19.5189H21.5616V18.3438H16.345C16.1916 18.3438 15.987 18.3438 15.8336 18.3948C14.9642 18.497 14.2993 19.2124 14.2993 20.081C14.2993 20.7963 14.7596 21.6649 15.7825 21.7671C15.987 21.7671 16.1405 21.8182 16.345 21.7671H19.7716C19.8227 21.7671 19.9762 21.7671 20.0273 21.7671C20.3342 21.8182 20.5387 22.0737 20.5387 22.3292C20.5899 22.6357 20.3342 22.8912 20.0785 22.9423Z" fill="black"/>
<path d="M50.5599 24.1175V18.3438H49.2813V22.6868L45.0365 18.3438H43.3999V24.1175H44.6785V19.7744L48.9745 24.1175H50.5599Z" fill="black"/>
<path d="M47.236 38.4747C47.8497 38.4747 48.3611 38.9857 48.3611 39.5988C48.3611 40.212 47.8497 40.7229 47.236 40.7229C46.6223 40.7229 46.1108 40.212 46.1108 39.5988C46.1108 39.2923 46.2131 39.0368 46.4688 38.7813C46.6223 38.5769 46.9291 38.4237 47.236 38.4747ZM47.236 40.4674C47.4917 40.4674 47.6963 40.3653 47.8497 40.212C48.0031 40.0587 48.1054 39.8032 48.1054 39.5988C48.1054 39.139 47.6963 38.7302 47.236 38.7813C46.7757 38.7813 46.3666 39.1901 46.3666 39.6499C46.3666 40.0587 46.7246 40.4674 47.236 40.4674ZM46.7757 40.1609V39.0368C46.9291 39.0368 47.0314 38.9857 47.1848 38.9857C47.3894 38.9857 47.6963 39.0368 47.6963 39.2923C47.6963 39.4456 47.594 39.5477 47.4406 39.5477C47.5428 39.5988 47.594 39.701 47.6451 39.8032C47.6451 39.9054 47.6963 40.0076 47.7474 40.0587H47.4917C47.4406 39.9565 47.4406 39.8543 47.3894 39.8032C47.3383 39.6499 47.236 39.6499 47.0314 39.6499V40.1098L46.7757 40.1609ZM47.0314 39.4966C47.236 39.4966 47.4406 39.4966 47.4406 39.3434C47.4406 39.2412 47.3894 39.1901 47.1848 39.1901C47.1337 39.1901 47.0826 39.1901 47.0314 39.1901V39.4966Z" fill="black"/>
</svg>
