<svg width="55" height="36" viewBox="0 0 55 36" fill="none" xmlns="http://www.w3.org/2000/svg">
<path d="M39.6701 1.76931C36.2638 0.649949 32.0413 0 27.464 0C22.8867 0 18.6642 0.649949 15.2579 1.76931C6.20975 4.73019 0.000244141 10.8686 0.000244141 17.9458C0.000244141 27.9117 12.2773 36 27.4285 36C42.5797 36 54.8568 27.9117 54.8568 17.9458C54.9278 10.8686 48.7182 4.73019 39.6701 1.76931ZM27.464 28.2728C25.1931 28.2728 23.348 23.7593 23.2415 18.0542C24.5899 18.1625 26.0092 18.2347 27.464 18.2347C28.9188 18.2347 30.3026 18.1625 31.6865 18.0542C31.58 23.7232 29.7349 28.2728 27.464 28.2728ZM23.5254 13.5767C24.1286 9.56871 25.6544 6.75226 27.464 6.75226C29.2381 6.75226 30.7639 9.56871 31.4026 13.5767C30.1607 13.6851 28.8123 13.7573 27.464 13.7573C26.1156 13.7573 24.8028 13.7212 23.5254 13.5767ZM33.8154 13.2879C32.8929 7.00501 30.4091 2.52758 27.464 2.52758C24.5189 2.52758 22.0351 7.00501 21.1126 13.2879C15.5417 12.3852 11.6386 10.3992 11.6386 8.05215C11.6386 4.87462 18.6997 2.31093 27.4285 2.31093C36.1573 2.31093 43.2184 4.87462 43.2184 8.05215C43.2894 10.3992 39.3862 12.4213 33.8154 13.2879ZM4.04529 17.2959C4.04529 14.2267 5.21623 11.3741 7.20327 8.91875C7.16779 9.0993 7.16779 9.27984 7.16779 9.42427C7.16779 13.2879 12.845 16.5376 20.7577 17.7292C20.7577 18.0181 20.7577 18.3069 20.7577 18.5958C20.7577 25.7452 22.7093 31.8114 25.406 33.9057C13.4128 33.1836 4.04529 26.0341 4.04529 17.2959ZM29.5575 33.9057C32.2542 31.8114 34.2057 25.7452 34.2057 18.5958C34.2057 18.3069 34.2057 18.0181 34.2057 17.7292C42.1184 16.5376 47.7957 13.2518 47.7957 9.42427C47.7957 9.24373 47.7957 9.06319 47.7602 8.91875C49.7827 11.3741 50.9182 14.2628 50.9182 17.2959C50.9182 26.0341 41.5152 33.1836 29.5575 33.9057Z" fill="#0F0F0F"/>
</svg>
