<svg width="27" height="27" viewBox="0 0 27 27" fill="none" xmlns="http://www.w3.org/2000/svg">
<path id="Vector" d="M0 0.0337079V27H26.9587V18.9775C27.0138 18.7334 27.0138 18.4801 26.9587 18.236V0H0V0.0337079ZM3.36984 3.40449H23.5889V16.8876H18.5341C18.4332 16.8785 18.3317 16.8785 18.2308 16.8876C17.784 16.9279 17.3714 17.144 17.0838 17.4885C16.7963 17.8331 16.6573 18.2777 16.6976 18.7247C16.7378 19.1717 16.9539 19.5844 17.2983 19.872C17.6427 20.1597 18.0872 20.2987 18.5341 20.2584H23.5889V23.6292H3.36984V3.40449ZM11.7944 6.77528C8.99747 6.77528 6.73968 9.03371 6.73968 11.8315C6.73968 15.2022 11.7944 20.2584 11.7944 20.2584C11.7944 20.2584 16.8492 15.2022 16.8492 11.8315C16.8492 9.03371 14.5914 6.77528 11.7944 6.77528ZM11.7944 10.1461C12.738 10.1461 13.4794 10.8876 13.4794 11.8315C13.4794 12.7753 12.738 13.5169 11.7944 13.5169C10.8509 13.5169 10.1095 12.7753 10.1095 11.8315C10.1095 10.8876 10.8509 10.1461 11.7944 10.1461Z" fill="black"/>
</svg>
