<svg width="27" height="27" viewBox="0 0 27 27" fill="none" xmlns="http://www.w3.org/2000/svg">
<path d="M1.1497 0.00684653C0.800447 0.124232 0.499224 0.352689 0.292038 0.657323C0.084851 0.961958 -0.0169108 1.32603 0.00229473 1.69392V25.3129C0.00229473 25.7604 0.180069 26.1895 0.49651 26.5059C0.812951 26.8223 1.24214 27 1.68965 27H25.3126C25.7602 27 26.1893 26.8223 26.5058 26.5059C26.8222 26.1895 27 25.7604 27 25.3129V1.69392C27 1.24648 26.8222 0.817366 26.5058 0.500979C26.1893 0.184591 25.7602 0.00684653 25.3126 0.00684653L1.68965 0.00684653C1.58862 -0.00228218 1.48696 -0.00228218 1.38593 0.00684653C1.31849 0.00279391 1.25088 0.00279391 1.18344 0.00684653L1.1497 0.00684653ZM5.06436 3.38099C6.00928 3.38099 6.75172 4.1233 6.75172 5.06806C6.75172 6.01282 6.00928 6.75514 5.06436 6.75514C4.11944 6.75514 3.37701 6.01282 3.37701 5.06806C3.37701 4.1233 4.11944 3.38099 5.06436 3.38099ZM11.8138 3.38099H21.9379C22.8829 3.38099 23.6253 4.1233 23.6253 5.06806C23.6253 6.01282 22.8829 6.75514 21.9379 6.75514H11.8138C10.8689 6.75514 10.1264 6.01282 10.1264 5.06806C10.1264 4.1233 10.8689 3.38099 11.8138 3.38099ZM3.37701 10.1293H23.6253V23.6259H3.37701V10.1293Z" fill="black"/>
</svg>
