<svg width="17" height="27" viewBox="0 0 17 27" fill="none" xmlns="http://www.w3.org/2000/svg">
<path d="M0.644711 0C0.271457 0 0 0.269663 0 0.640449V26.3596C0 26.7303 0.271457 27 0.644711 27H16.3553C16.7285 27 17 26.7303 17 26.3596V0.640449C17 0.269663 16.7285 0 16.3553 0L0.644711 0ZM3.39321 3.37079H13.5729V20.2247H3.39321V3.37079ZM8.48303 21.9101C9.43313 21.9101 10.1796 22.6517 10.1796 23.5955C10.1796 24.5393 9.43313 25.2809 8.48303 25.2809C7.53293 25.2809 6.78643 24.5393 6.78643 23.5955C6.78643 22.6517 7.53293 21.9101 8.48303 21.9101Z" fill="black"/>
</svg>
